<svg width="36" height="69" viewBox="0 0 36 69" fill="none" xmlns="http://www.w3.org/2000/svg">
<path fill-rule="evenodd" clip-rule="evenodd" d="M29.0445 55.2282L23.271 49.3786L26.3169 46.1544L36 55.9651V59.1893L26.3169 69L23.0891 65.7298L28.8627 59.8802H20.4524C18.9582 59.8863 17.4776 59.5926 16.096 59.0161C14.7144 58.4396 13.4592 57.5916 12.4026 56.5211C11.3461 55.4507 10.5091 54.1788 9.94011 52.779C9.37108 51.3792 9.08122 49.8791 9.08723 48.3653V22.8021C6.90911 22.3323 4.90716 21.2463 3.31371 19.6701C1.73108 18.05 0.654313 15.9936 0.21775 13.7574C-0.218813 11.5213 0.00415343 9.20438 0.858833 7.0958C1.72143 4.99434 3.17934 3.199 5.04842 1.93653C6.9175 0.674063 9.11391 0.00108932 11.3603 0.00260695C12.9194 -0.0313523 14.4682 0.266793 15.9063 0.877741C17.2841 1.45197 18.5358 2.29715 19.5892 3.36444C20.6426 4.43172 21.4768 5.69993 22.0435 7.0958C22.6482 8.55589 22.9391 10.1265 22.9073 11.7018C22.9078 14.3563 22.0031 16.9295 20.3463 18.9859C18.6894 21.0422 16.3822 22.4555 13.8151 22.9864V48.3192C13.8151 50.1516 14.5336 51.9089 15.8124 53.2046C17.0913 54.5003 18.8257 55.2282 20.6343 55.2282H29.0445ZM7.76887 17.2289C9.08049 18.1143 10.6543 18.512 12.2227 18.3544C13.791 18.1968 15.2571 17.4937 16.3716 16.3645C17.486 15.2354 18.18 13.75 18.3355 12.161C18.4911 10.572 18.0986 8.97742 17.2247 7.64851C16.4622 6.50391 15.3883 5.60794 14.1334 5.06917C12.8947 4.55795 11.5343 4.42974 10.2237 4.70069C8.89635 4.96077 7.67613 5.61736 6.72013 6.58596C5.76412 7.55456 5.11607 8.79085 4.85938 10.1357C4.59195 11.4635 4.71849 12.8418 5.22307 14.0969C5.75496 15.3727 6.6369 16.4597 7.76887 17.2289Z" fill="#CDCDCD"/>
</svg>
