<svg width="68" height="58" viewBox="0 0 68 58" fill="none" xmlns="http://www.w3.org/2000/svg">
<path d="M22.0653 4.8125L30.2947 13.0178L31.6903 14.4375H62.5625V52.9375H4.8125V4.8125H22.0653ZM22.0653 1.51096e-06H4.8125C3.53615 1.51096e-06 2.31207 0.507031 1.40955 1.40955C0.50703 2.31207 0 3.53615 0 4.8125V52.9375C0 54.2139 0.50703 55.4379 1.40955 56.3405C2.31207 57.243 3.53615 57.75 4.8125 57.75H62.5625C63.8389 57.75 65.0629 57.243 65.9655 56.3405C66.868 55.4379 67.375 54.2139 67.375 52.9375V14.4375C67.375 13.1611 66.868 11.9371 65.9655 11.0346C65.0629 10.132 63.8389 9.625 62.5625 9.625H33.6875L25.4822 1.41969C25.0345 0.969316 24.5021 0.612001 23.9156 0.368342C23.3292 0.124683 22.7004 -0.000501683 22.0653 1.51096e-06V1.51096e-06Z" fill="#ADADAD"/>
<path d="M15.06 46H12.46L9.26 35.86H11.76L12.68 39.2C12.9467 40.16 13.1667 41.02 13.34 41.78C13.5267 42.5267 13.64 43.0333 13.68 43.3L13.76 43.7C13.8933 42.8867 14.28 41.3867 14.92 39.2L15.9 35.86H18.08L19.06 39.2C19.3533 40.1867 19.5933 41.06 19.78 41.82C19.98 42.5667 20.1067 43.0667 20.16 43.32L20.22 43.72C20.3533 42.9333 20.7467 41.4267 21.4 39.2L22.36 35.86H24.76L21.54 46H18.94L18.04 42.68C17.8 41.8133 17.5933 41.0267 17.42 40.32C17.2467 39.6 17.1333 39.1067 17.08 38.84L17 38.42C16.8267 39.3 16.48 40.72 15.96 42.68L15.06 46ZM31.7756 46H29.1756L25.9756 35.86H28.4756L29.3956 39.2C29.6623 40.16 29.8823 41.02 30.0556 41.78C30.2423 42.5267 30.3556 43.0333 30.3956 43.3L30.4756 43.7C30.609 42.8867 30.9956 41.3867 31.6356 39.2L32.6156 35.86H34.7956L35.7756 39.2C36.069 40.1867 36.309 41.06 36.4956 41.82C36.6956 42.5667 36.8223 43.0667 36.8756 43.32L36.9356 43.72C37.069 42.9333 37.4623 41.4267 38.1156 39.2L39.0756 35.86H41.4756L38.2556 46H35.6556L34.7556 42.68C34.5156 41.8133 34.309 41.0267 34.1356 40.32C33.9623 39.6 33.849 39.1067 33.7956 38.84L33.7156 38.42C33.5423 39.3 33.1956 40.72 32.6756 42.68L31.7756 46ZM48.4913 46H45.8913L42.6913 35.86H45.1913L46.1113 39.2C46.3779 40.16 46.5979 41.02 46.7713 41.78C46.9579 42.5267 47.0713 43.0333 47.1113 43.3L47.1913 43.7C47.3246 42.8867 47.7113 41.3867 48.3513 39.2L49.3313 35.86H51.5113L52.4913 39.2C52.7846 40.1867 53.0246 41.06 53.2113 41.82C53.4113 42.5667 53.5379 43.0667 53.5913 43.32L53.6513 43.72C53.7846 42.9333 54.1779 41.4267 54.8313 39.2L55.7913 35.86H58.1913L54.9713 46H52.3713L51.4713 42.68C51.2313 41.8133 51.0246 41.0267 50.8513 40.32C50.6779 39.6 50.5646 39.1067 50.5113 38.84L50.4313 38.42C50.2579 39.3 49.9113 40.72 49.3913 42.68L48.4913 46Z" fill="#ADADAD"/>
</svg>
