<svg width="57" height="57" viewBox="0 0 57 57" fill="none" xmlns="http://www.w3.org/2000/svg">
<path d="M55.9237 25.9559L31.0326 1.07787C30.6917 0.7362 30.2868 0.465123 29.841 0.280165C29.3952 0.095206 28.9173 0 28.4346 0C27.952 0 27.4741 0.095206 27.0283 0.280165C26.5825 0.465123 26.1776 0.7362 25.8367 1.07787L20.6782 6.2444L27.2368 12.7929C28.0072 12.5316 28.8354 12.4914 29.6276 12.6768C30.4197 12.8622 31.144 13.2658 31.7184 13.8419C32.9439 15.0672 33.2859 16.8286 32.7675 18.3495L39.0767 24.6665C39.8497 24.3974 40.683 24.3521 41.4806 24.5358C42.2782 24.7195 43.0077 25.1247 43.585 25.7048C45.3022 27.411 45.3022 30.175 43.585 31.8829C43.1802 32.2885 42.6993 32.6103 42.1699 32.8298C41.6405 33.0494 41.073 33.1624 40.4999 33.1624C39.9268 33.1624 39.3593 33.0494 38.8299 32.8298C38.3005 32.6103 37.8197 32.2885 37.4148 31.8829C36.8068 31.2747 36.3911 30.5011 36.2195 29.6585C36.0478 28.8159 36.1278 27.9414 36.4494 27.1438L30.5392 21.2631V36.7627C30.956 36.9675 31.355 37.2453 31.6988 37.5891C33.3963 39.3059 33.3963 42.0592 31.6988 43.7672C30.8759 44.5866 29.7617 45.0467 28.6003 45.0467C27.4389 45.0467 26.3247 44.5866 25.5018 43.7672C24.9926 43.2579 24.6172 42.6306 24.409 41.9412C24.2009 41.2518 24.1664 40.5216 24.3087 39.8156C24.4509 39.1097 24.7656 38.4498 25.2245 37.8948C25.6835 37.3398 26.2725 36.9069 26.9393 36.6345V20.9871C26.4075 20.7612 25.9228 20.4374 25.5107 20.0325C24.8978 19.4212 24.4812 18.641 24.3143 17.7917C24.1474 16.9424 24.2377 16.0626 24.5738 15.2649L18.1346 8.79115L1.06491 25.8491C0.382521 26.5415 0 27.4745 0 28.4466C0 29.4186 0.382521 30.3517 1.06491 31.0441L25.956 55.9221C26.2969 56.2638 26.7018 56.5349 27.1476 56.7198C27.5934 56.9048 28.0713 57 28.554 57C29.0367 57 29.5146 56.9048 29.9604 56.7198C30.4062 56.5349 30.8111 56.2638 31.1519 55.9221L55.922 31.1563C56.2637 30.8155 56.5348 30.4106 56.7198 29.9649C56.9048 29.5192 57 29.0413 57 28.5588C57 28.0762 56.9048 27.5984 56.7198 27.1526C56.5348 26.7069 56.2637 26.3021 55.922 25.9613L55.9237 25.9559Z" fill="#F05134"/>
</svg>
