<svg width="484" height="187" viewBox="0 0 484 187" fill="none" xmlns="http://www.w3.org/2000/svg">
<rect x="60.9279" width="85.9151" height="57.1627" rx="25" fill="#C1C1C1"/>
<path d="M60.9279 16.43C60.9279 7.35598 68.2838 0 77.3578 0V0V57.1627V57.1627C68.2838 57.1627 60.9279 49.8067 60.9279 40.7327V16.43Z" fill="#D2D2D2"/>
<path d="M146.843 43.471C146.843 51.2217 140.56 57.505 132.809 57.505V57.505L132.809 0.342299V0.342299C140.56 0.3423 146.843 6.62552 146.843 14.3763L146.843 43.471Z" fill="#A2A2A2"/>
<rect x="73.5927" y="7.62939e-06" width="11.9802" height="57.1627" fill="#C6C6C6"/>
<rect x="120.829" y="7.62939e-06" width="11.9802" height="57.1627" fill="#B4B4B4"/>
<rect x="198.529" y="7.62939e-06" width="85.9151" height="57.1627" rx="25" fill="#C1C1C1"/>
<path d="M198.529 16.43C198.529 7.35598 205.885 7.62939e-06 214.959 7.62939e-06V7.62939e-06V57.1627V57.1627C205.885 57.1627 198.529 49.8067 198.529 40.7327V16.43Z" fill="#D2D2D2"/>
<path d="M284.444 43.471C284.444 51.2217 278.161 57.505 270.41 57.505V57.505L270.41 0.342299V0.342299C278.161 0.3423 284.444 6.62552 284.444 14.3763L284.444 43.471Z" fill="#A2A2A2"/>
<rect x="211.194" y="1.52588e-05" width="11.9802" height="57.1627" fill="#C6C6C6"/>
<rect x="258.43" y="1.52588e-05" width="11.9802" height="57.1627" fill="#B4B4B4"/>
<rect x="336.13" y="7.62939e-06" width="85.9151" height="57.1627" rx="25" fill="#C1C1C1"/>
<path d="M336.13 16.43C336.13 7.35598 343.486 7.62939e-06 352.56 7.62939e-06V7.62939e-06V57.1627V57.1627C343.486 57.1627 336.13 49.8067 336.13 40.7327V16.43Z" fill="#D2D2D2"/>
<path d="M422.045 43.471C422.045 51.2217 415.762 57.505 408.011 57.505V57.505L408.011 0.342299V0.342299C415.762 0.3423 422.045 6.62552 422.045 14.3763L422.045 43.471Z" fill="#A2A2A2"/>
<rect x="348.795" y="1.52588e-05" width="11.9802" height="57.1627" fill="#C6C6C6"/>
<rect x="396.031" y="1.52588e-05" width="11.9802" height="57.1627" fill="#B4B4B4"/>
<rect y="36.6252" width="484" height="149.581" fill="#C3C3C3"/>
<rect y="183.126" width="484" height="3.08062" fill="#A2A2A2"/>
<rect x="419.307" y="36.6252" width="64.6931" height="146.501" fill="#A2A2A2"/>
<rect x="17.4569" y="52.3706" width="6.16124" height="95.8416" fill="#D9D9D9"/>
<rect x="17.4569" y="52.3706" width="124.936" height="10.2687" fill="#D9D9D9"/>
</svg>
